<svg width="25" height="25" viewBox="0 0 25 25" fill="none" xmlns="http://www.w3.org/2000/svg">
<path d="M23.125 0H1.875C1.37772 0 0.900806 0.197544 0.549175 0.549175C0.197544 0.900806 0 1.37772 0 1.875V23.125C0 23.6223 0.197544 24.0992 0.549175 24.4508C0.900806 24.8025 1.37772 25 1.875 25H23.125C23.6223 25 24.0992 24.8025 24.4508 24.4508C24.8025 24.0992 25 23.6223 25 23.125V1.875C25 1.37772 24.8025 0.900806 24.4508 0.549175C24.0992 0.197544 23.6223 0 23.125 0ZM7.5 21.25H3.75V10H7.5V21.25ZM5.625 7.8125C5.19523 7.80022 4.77861 7.66156 4.42719 7.41385C4.07577 7.16613 3.80514 6.82036 3.64912 6.41972C3.49309 6.01908 3.45859 5.58135 3.54992 5.16121C3.64126 4.74108 3.85437 4.35717 4.16264 4.05747C4.47091 3.75776 4.86067 3.55554 5.28321 3.47608C5.70575 3.39662 6.14233 3.44343 6.53842 3.61068C6.9345 3.77792 7.27252 4.05818 7.51024 4.41644C7.74795 4.77469 7.87482 5.19505 7.875 5.625C7.86513 6.21294 7.62292 6.77306 7.20131 7.18296C6.77971 7.59285 6.21298 7.81919 5.625 7.8125ZM21.25 21.25H17.5V15.325C17.5 13.55 16.75 12.9125 15.775 12.9125C15.4891 12.9315 15.2099 13.0069 14.9532 13.1341C14.6965 13.2614 14.4675 13.4382 14.2794 13.6542C14.0912 13.8702 13.9476 14.1213 13.8567 14.393C13.7659 14.6647 13.7296 14.9517 13.75 15.2375C13.7438 15.2957 13.7438 15.3543 13.75 15.4125V21.25H10V10H13.625V11.625C13.9907 11.0688 14.493 10.6157 15.084 10.3093C15.6749 10.0029 16.3347 9.85333 17 9.875C18.9375 9.875 21.2 10.95 21.2 14.45L21.25 21.25Z" fill="#8D8E8D"/>
</svg>
